<svg width="16" height="16" viewBox="0 0 16 16" fill="none" xmlns="http://www.w3.org/2000/svg">
<g clip-path="url(#clip0_21_7)">
<rect width="16" height="16" rx="8" fill="#45311F"/>
<rect width="5.15553" height="5.15921" transform="matrix(0.733352 0.679849 -0.737889 0.674922 8.02625 4.97774)" fill="#CC865F"/>
<path d="M4.8537 9.03542H11.1958L7.98189 11.9659L4.8537 9.03542Z" fill="#F2C9B3"/>
<path d="M13.1352 3.76138L11.87 8.35308L8.14033 4.89554L13.1352 3.76138Z" fill="#F2C9B3"/>
<path d="M7.89091 4.89554L4.14887 8.32098L2.8684 3.69286L7.89091 4.89554Z" fill="#F2C9B3"/>
<path d="M4.527 12.502C4.527 12.562 4.50733 12.6103 4.468 12.647C4.42867 12.6837 4.36967 12.702 4.291 12.702H4.15V13H4.08V12.301H4.291C4.369 12.301 4.42767 12.3193 4.467 12.356C4.507 12.3927 4.527 12.4413 4.527 12.502ZM4.291 12.642C4.40033 12.642 4.455 12.5953 4.455 12.502C4.455 12.4553 4.442 12.42 4.416 12.396C4.39 12.372 4.34833 12.36 4.291 12.36H4.15V12.642H4.291ZM5.04945 12.834H4.73145L4.67045 13H4.59645L4.85145 12.31H4.93045L5.18445 13H5.11045L5.04945 12.834ZM5.02845 12.776L4.89045 12.398L4.75245 12.776H5.02845ZM5.3638 12.301V12.741C5.3638 12.8103 5.38013 12.8617 5.4128 12.895C5.44613 12.9283 5.49146 12.945 5.5488 12.945C5.60613 12.945 5.6508 12.9287 5.6828 12.896C5.71546 12.8627 5.7318 12.811 5.7318 12.741V12.301H5.8018V12.74C5.8018 12.8287 5.77813 12.8953 5.7308 12.94C5.68413 12.9847 5.62313 13.007 5.5478 13.007C5.47246 13.007 5.41113 12.9847 5.3638 12.94C5.31713 12.8953 5.2938 12.8287 5.2938 12.74V12.301H5.3638ZM6.02793 12.943H6.27893V13H5.95793V12.301H6.02793V12.943ZM6.78383 12.834H6.46583L6.40483 13H6.33083L6.58583 12.31H6.66483L6.91883 13H6.84483L6.78383 12.834ZM6.76283 12.776L6.62483 12.398L6.48683 12.776H6.76283ZM7.88259 13.137L7.72659 12.992C7.69259 13.002 7.65692 13.007 7.61959 13.007C7.55492 13.007 7.49625 12.992 7.44359 12.962C7.39092 12.9313 7.34925 12.889 7.31859 12.835C7.28859 12.7803 7.27359 12.7187 7.27359 12.65C7.27359 12.5813 7.28859 12.52 7.31859 12.466C7.34925 12.4113 7.39092 12.369 7.44359 12.339C7.49625 12.3083 7.55492 12.293 7.61959 12.293C7.68492 12.293 7.74392 12.3083 7.79659 12.339C7.84925 12.369 7.89059 12.4113 7.92059 12.466C7.95059 12.52 7.96559 12.5813 7.96559 12.65C7.96559 12.7207 7.94992 12.7837 7.91859 12.839C7.88725 12.8937 7.84425 12.9357 7.78959 12.965L7.97659 13.137H7.88259ZM7.34559 12.65C7.34559 12.7093 7.35759 12.7617 7.38159 12.807C7.40559 12.8517 7.43825 12.886 7.47959 12.91C7.52092 12.934 7.56759 12.946 7.61959 12.946C7.67159 12.946 7.71825 12.934 7.75959 12.91C7.80092 12.886 7.83359 12.8517 7.85759 12.807C7.88159 12.7617 7.89359 12.7093 7.89359 12.65C7.89359 12.5907 7.88159 12.5387 7.85759 12.494C7.83359 12.4493 7.80092 12.415 7.75959 12.391C7.71825 12.367 7.67159 12.355 7.61959 12.355C7.56759 12.355 7.52092 12.367 7.47959 12.391C7.43825 12.415 7.40559 12.4493 7.38159 12.494C7.35759 12.5387 7.34559 12.5907 7.34559 12.65ZM8.16165 12.301V12.741C8.16165 12.8103 8.17798 12.8617 8.21065 12.895C8.24398 12.9283 8.28932 12.945 8.34665 12.945C8.40398 12.945 8.44865 12.9287 8.48065 12.896C8.51332 12.8627 8.52965 12.811 8.52965 12.741V12.301H8.59965V12.74C8.59965 12.8287 8.57598 12.8953 8.52865 12.94C8.48198 12.9847 8.42098 13.007 8.34565 13.007C8.27032 13.007 8.20898 12.9847 8.16165 12.94C8.11498 12.8953 8.09165 12.8287 8.09165 12.74V12.301H8.16165ZM8.82578 12.301V13H8.75578V12.301H8.82578ZM9.5113 13H9.4413L9.0543 12.412V13H8.9843V12.301H9.0543L9.4413 12.888V12.301H9.5113V13ZM10.0788 12.301V12.359H9.88484V13H9.81484V12.359H9.61984V12.301H10.0788ZM10.2594 12.358V12.619H10.5244V12.677H10.2594V12.942H10.5544V13H10.1894V12.3H10.5544V12.358H10.2594ZM11.0643 13L10.8913 12.708H10.7623V13H10.6923V12.301H10.9023C10.9803 12.301 11.0393 12.3197 11.0793 12.357C11.12 12.3943 11.1403 12.4433 11.1403 12.504C11.1403 12.5547 11.1256 12.598 11.0963 12.634C11.0676 12.6693 11.025 12.6923 10.9683 12.703L11.1483 13H11.0643ZM10.7623 12.651H10.9033C10.958 12.651 10.999 12.6377 11.0263 12.611C11.0543 12.5843 11.0683 12.5487 11.0683 12.504C11.0683 12.458 11.055 12.4227 11.0283 12.398C11.0016 12.3727 10.9596 12.36 10.9023 12.36H10.7623V12.651ZM11.5932 13.007C11.5286 13.007 11.4699 12.992 11.4172 12.962C11.3646 12.9313 11.3229 12.889 11.2922 12.835C11.2622 12.7803 11.2472 12.7187 11.2472 12.65C11.2472 12.5813 11.2622 12.52 11.2922 12.466C11.3229 12.4113 11.3646 12.369 11.4172 12.339C11.4699 12.3083 11.5286 12.293 11.5932 12.293C11.6586 12.293 11.7176 12.3083 11.7702 12.339C11.8229 12.369 11.8642 12.4113 11.8942 12.466C11.9242 12.52 11.9392 12.5813 11.9392 12.65C11.9392 12.7187 11.9242 12.7803 11.8942 12.835C11.8642 12.889 11.8229 12.9313 11.7702 12.962C11.7176 12.992 11.6586 13.007 11.5932 13.007ZM11.5932 12.946C11.6452 12.946 11.6919 12.934 11.7332 12.91C11.7746 12.886 11.8072 12.8517 11.8312 12.807C11.8552 12.7617 11.8672 12.7093 11.8672 12.65C11.8672 12.5907 11.8552 12.5387 11.8312 12.494C11.8072 12.4493 11.7746 12.415 11.7332 12.391C11.6919 12.367 11.6452 12.355 11.5932 12.355C11.5412 12.355 11.4946 12.367 11.4532 12.391C11.4119 12.415 11.3792 12.4493 11.3552 12.494C11.3312 12.5387 11.3192 12.5907 11.3192 12.65C11.3192 12.7093 11.3312 12.7617 11.3552 12.807C11.3792 12.8517 11.4119 12.886 11.4532 12.91C11.4946 12.934 11.5412 12.946 11.5932 12.946Z" fill="#F2C9B3"/>
</g>
<rect x="0.5" y="0.5" width="15" height="15" rx="7.5" stroke="#CC865F"/>
<defs>
<clipPath id="clip0_21_7">
<rect width="16" height="16" rx="8" fill="white"/>
</clipPath>
</defs>
</svg>
