<svg width="2048" height="1152" viewBox="0 0 2048 1152" fill="none" xmlns="http://www.w3.org/2000/svg">
<rect width="2048" height="1152" fill="#CECECE"/>
<rect width="200.236" height="200.288" transform="matrix(0.709982 0.70422 -0.714698 0.699433 1013.98 502.901)" fill="#2E2E2E"/>
<rect width="200.236" height="200.288" transform="matrix(0.709982 0.70422 -0.714698 0.699433 1550.69 502.901)" fill="#2E2E2E"/>
<rect width="200.236" height="200.288" transform="matrix(0.709982 0.70422 -0.714698 0.699433 477.268 502.901)" fill="#2E2E2E"/>
<path d="M1214.49 445.292L1164.29 627.408L1029.32 493.535L1214.49 445.292Z" fill="#A8A8A8"/>
<path d="M1751.2 445.292L1700.99 627.408L1566.03 493.535L1751.2 445.292Z" fill="#A8A8A8"/>
<path d="M677.785 445.292L627.576 627.408L492.607 493.535L677.785 445.292Z" fill="#A8A8A8"/>
<path d="M862.168 626.839L814.849 443.988L999.241 495.014L862.168 626.839Z" fill="#A8A8A8"/>
<path d="M1398.88 626.839L1351.56 443.988L1535.95 495.014L1398.88 626.839Z" fill="#A8A8A8"/>
<path d="M325.458 626.839L278.14 443.988L462.531 495.014L325.458 626.839Z" fill="#A8A8A8"/>
</svg>
